<svg width="18" height="18" viewBox="0 0 18 18" fill="white" xmlns="http://www.w3.org/2000/svg">
<path d="M8.74934 0.692871C7.11102 0.692871 5.50948 1.17869 4.14727 2.0889C2.78505 2.9991 1.72333 4.29281 1.09637 5.80642C0.469409 7.32004 0.305368 8.98558 0.624989 10.5924C0.944611 12.1993 1.73354 13.6752 2.89201 14.8337C4.05048 15.9922 5.52646 16.7811 7.13331 17.1007C8.74015 17.4204 10.4057 17.2563 11.9193 16.6294C13.4329 16.0024 14.7266 14.9407 15.6368 13.5785C16.547 12.2162 17.0329 10.6147 17.0329 8.97639C17.0329 6.77946 16.1601 4.67252 14.6067 3.11906C13.0532 1.5656 10.9463 0.692871 8.74934 0.692871ZM7.56598 12.2839L4.60758 9.32548L5.54835 8.38471L7.56598 10.4023L11.9503 6.01799L12.8947 6.95639L7.56598 12.2839Z" fill="black"/>
</svg>
