<svg width="48" height="40" viewBox="0 0 48 40" fill="none" xmlns="http://www.w3.org/2000/svg">
<path d="M7.68384 20.0071C7.80996 19.489 8.13657 19.0421 8.59195 18.7646C9.04732 18.4871 9.59422 18.4018 10.1125 18.5272L19.3307 20.7649C19.8489 20.891 20.2957 21.2177 20.5732 21.673C20.8507 22.1284 20.9361 22.6753 20.8106 23.1936L18.5729 32.4118C18.5185 32.6765 18.4113 32.9275 18.2577 33.1499C18.1041 33.3722 17.9074 33.5614 17.6791 33.7061C17.4509 33.8507 17.1958 33.9479 16.9292 33.9919C16.6626 34.0358 16.3898 34.0256 16.1272 33.9619C15.8646 33.8981 15.6175 33.7821 15.4007 33.6208C15.1839 33.4595 15.0018 33.2562 14.8653 33.023C14.7288 32.7898 14.6406 32.5315 14.6061 32.2635C14.5716 31.9954 14.5914 31.7232 14.6644 31.463L15.7564 26.9645L7.30189 32.1162C6.84614 32.3939 6.29875 32.4791 5.78012 32.3532C5.2615 32.2274 4.81412 31.9006 4.53642 31.4448C4.25872 30.9891 4.17343 30.4417 4.29933 29.9231C4.42522 29.4045 4.75199 28.9571 5.20773 28.6794L13.6622 23.5277L9.16371 22.4357C8.64559 22.3096 8.1987 21.983 7.92123 21.5276C7.64375 21.0723 7.55837 20.5254 7.68384 20.0071Z" fill="white"/>
<path d="M39.2317 20.184C39.0933 20.699 38.7562 21.1381 38.2944 21.4047C37.8326 21.6713 37.2839 21.7437 36.7687 21.6061L27.606 19.1509C27.091 19.0126 26.6519 18.6755 26.3853 18.2137C26.1187 17.7519 26.0463 17.2031 26.184 16.6879L28.6391 7.52521C28.6998 7.26188 28.8129 7.01348 28.9717 6.79481C29.1304 6.57615 29.3316 6.3917 29.5633 6.25247C29.7949 6.11325 30.0521 6.02211 30.3197 5.98447C30.5873 5.94684 30.8598 5.96349 31.1208 6.03343C31.3818 6.10337 31.6261 6.22517 31.839 6.39156C32.0519 6.55795 32.2292 6.76552 32.3601 7.0019C32.4911 7.23827 32.5731 7.4986 32.6013 7.76736C32.6294 8.03612 32.6032 8.3078 32.5241 8.56619L31.326 13.0376L39.9 8.08741C40.3621 7.82056 40.9114 7.74825 41.4269 7.88638C41.9424 8.02451 42.3819 8.36176 42.6488 8.82395C42.9156 9.28614 42.9879 9.8354 42.8498 10.3509C42.7117 10.8664 42.3744 11.3059 41.9122 11.5728L33.3383 16.523L37.8097 17.7211C38.3247 17.8594 38.7637 18.1965 39.0303 18.6583C39.2969 19.1201 39.3694 19.6689 39.2317 20.184Z" fill="white"/>
</svg>
