<svg width="25" height="25" viewBox="0 0 25 25" fill="none" xmlns="http://www.w3.org/2000/svg">
<mask id="mask0_1_2530" style="mask-type:luminance" maskUnits="userSpaceOnUse" x="0" y="0" width="25" height="25">
<rect x="0.500168" y="0.250244" width="24" height="24" fill="white"/>
</mask>
<g mask="url(#mask0_1_2530)">
<path d="M10.7528 6.13464L11.0312 10.2746L11.1694 12.3554C11.1709 12.5694 11.2044 12.782 11.2691 12.9863C11.436 13.3829 11.8376 13.6349 12.2745 13.6173L18.9317 13.1818C19.22 13.1771 19.4984 13.2849 19.7056 13.4816C19.8783 13.6455 19.9898 13.8599 20.025 14.0905L20.0368 14.2305C19.7613 18.0452 16.9596 21.227 13.1528 22.0483C9.34598 22.8696 5.44229 21.1346 3.56114 17.7852C3.01882 16.8121 2.68008 15.7426 2.56481 14.6393C2.51666 14.3127 2.49546 13.9828 2.50141 13.6528C2.49546 9.56303 5.4079 6.02726 9.48476 5.17487C9.97544 5.09846 10.4565 5.35822 10.6532 5.80583C10.7041 5.90949 10.7377 6.02051 10.7528 6.13464Z" fill="white"/>
<path opacity="0.4" d="M22.5006 10.0624L22.4936 10.095L22.4734 10.1424L22.4762 10.2725C22.4658 10.4448 22.3992 10.6106 22.2846 10.7446C22.1651 10.8841 22.0019 10.9791 21.8222 11.016L21.7126 11.031L14.0318 11.5287C13.7763 11.5539 13.5219 11.4715 13.332 11.3021C13.1736 11.1608 13.0724 10.9702 13.0438 10.7648L12.5283 3.09518C12.5193 3.06925 12.5193 3.04114 12.5283 3.0152C12.5353 2.80379 12.6284 2.60396 12.7867 2.46035C12.9449 2.31674 13.1553 2.24132 13.3706 2.25094C17.9305 2.36695 21.7629 5.64591 22.5006 10.0624Z" fill="white"/>
</g>
</svg>
