<svg width="25" height="25" viewBox="0 0 25 25" fill="none" xmlns="http://www.w3.org/2000/svg">
<mask id="mask0_1_2573" style="mask-type:luminance" maskUnits="userSpaceOnUse" x="0" y="0" width="25" height="25">
<rect x="0.499878" y="0.250366" width="24" height="24" fill="white"/>
</mask>
<g mask="url(#mask0_1_2573)">
<path d="M10.7525 6.13476L11.0309 10.2747L11.1691 12.3555C11.1706 12.5695 11.2041 12.7821 11.2688 12.9864C11.4357 13.383 11.8373 13.635 12.2742 13.6174L18.9314 13.1819C19.2197 13.1772 19.4981 13.285 19.7053 13.4817C19.878 13.6456 19.9895 13.86 20.0247 14.0906L20.0365 14.2306C19.761 18.0453 16.9593 21.2271 13.1525 22.0484C9.34567 22.8697 5.44198 21.1347 3.56083 17.7853C3.01851 16.8122 2.67977 15.7427 2.5645 14.6394C2.51635 14.3128 2.49515 13.9829 2.5011 13.6529C2.49515 9.56316 5.40759 6.02739 9.48445 5.175C9.97513 5.09859 10.4561 5.35835 10.6529 5.80596C10.7038 5.90962 10.7374 6.02063 10.7525 6.13476Z" fill="#737791"/>
<path opacity="0.4" d="M22.5003 10.0625L22.4933 10.0951L22.4731 10.1425L22.4759 10.2726C22.4655 10.4449 22.3989 10.6107 22.2843 10.7447C22.1648 10.8842 22.0016 10.9792 21.8219 11.0161L21.7123 11.0311L14.0315 11.5288C13.776 11.554 13.5216 11.4716 13.3317 11.3022C13.1733 11.1609 13.0721 10.9703 13.0435 10.7649L12.528 3.0953C12.519 3.06937 12.519 3.04126 12.528 3.01532C12.535 2.80391 12.6281 2.60408 12.7864 2.46047C12.9446 2.31686 13.155 2.24144 13.3703 2.25106C17.9302 2.36707 21.7626 5.64603 22.5003 10.0625Z" fill="#737791"/>
</g>
</svg>
