<svg width="28" height="28" viewBox="0 0 28 28" fill="none" xmlns="http://www.w3.org/2000/svg">
<circle opacity="0.1" cx="13.6943" cy="13.8144" r="13.6745" fill="#5D5FEF"/>
<path d="M9.14597 9.39999L10.6427 18.4405C10.7111 18.8543 10.9243 19.2304 11.2442 19.5018C11.5641 19.7732 11.9699 19.9222 12.3894 19.9223H14.7609M19.5053 9.39999L18.0093 18.4405C17.9409 18.8543 17.7277 19.2304 17.4078 19.5018C17.0879 19.7732 16.6821 19.9222 16.2626 19.9223H13.8911M12.9249 12.873V16.4493M15.7271 12.873V16.4493M7.77393 9.39999H20.8781M16.2931 9.39999V8.13916C16.2931 7.85737 16.1811 7.58712 15.9819 7.38786C15.7826 7.1886 15.5123 7.07666 15.2306 7.07666H13.4215C13.1397 7.07666 12.8694 7.1886 12.6702 7.38786C12.4709 7.58712 12.359 7.85737 12.359 8.13916V9.39999H16.2931Z" stroke="#FFFFFF" stroke-width="1.0625" stroke-linecap="round" stroke-linejoin="round"/>
</svg>
