<svg width="28" height="28" viewBox="0 0 28 28" fill="none" xmlns="http://www.w3.org/2000/svg">
<circle opacity="0.05" cx="13.6745" cy="13.8144" r="13.6745" fill="#FF0000"/>
<path d="M10.7842 17.0499L13.9101 17.0393L20.7327 10.2818C21.0005 10.0141 21.1478 9.65847 21.1478 9.28022C21.1478 8.90197 21.0005 8.54639 20.7327 8.27864L19.6093 7.15522C19.0738 6.61972 18.1395 6.62256 17.6083 7.1531L10.7842 13.912V17.0499ZM18.6077 8.15681L19.7333 9.2781L18.6021 10.3987L17.4786 9.27597L18.6077 8.15681ZM12.2008 14.5028L16.4721 10.2719L17.5955 11.3953L13.325 15.6248L12.2008 15.6283V14.5028Z" fill="#FF0000"/>
<path d="M9.36759 19.874H19.2843C20.0656 19.874 20.7009 19.2386 20.7009 18.4574V12.3175L19.2843 13.7342V18.4574H11.6045C11.5861 18.4574 11.567 18.4644 11.5486 18.4644C11.5252 18.4644 11.5018 18.4581 11.4777 18.4574H9.36759V8.54069H14.2176L15.6342 7.12402H9.36759C8.5863 7.12402 7.95093 7.7594 7.95093 8.54069V18.4574C7.95093 19.2386 8.5863 19.874 9.36759 19.874Z" fill="#FF0000"/>
</svg>
