<svg width="406" height="62" viewBox="0 0 406 62" fill="none" xmlns="http://www.w3.org/2000/svg">
<path d="M166.237 9.78456C166.142 8.97874 165.755 8.35317 165.076 7.90785C164.398 7.46254 163.565 7.23988 162.579 7.23988C161.858 7.23988 161.227 7.35651 160.687 7.58977C160.151 7.82303 159.732 8.14377 159.43 8.55198C159.133 8.96019 158.985 9.42406 158.985 9.9436C158.985 10.3783 159.088 10.7521 159.295 11.0648C159.507 11.3723 159.777 11.6294 160.106 11.8362C160.435 12.0377 160.779 12.2047 161.14 12.3372C161.5 12.4644 161.832 12.5678 162.134 12.6473L163.788 13.0926C164.212 13.204 164.684 13.3577 165.203 13.5539C165.728 13.75 166.229 14.0177 166.706 14.357C167.189 14.691 167.586 15.1204 167.899 15.6453C168.212 16.1701 168.368 16.8142 168.368 17.5776C168.368 18.4577 168.138 19.2529 167.677 19.9633C167.221 20.6737 166.553 21.2383 165.673 21.6571C164.798 22.0759 163.735 22.2853 162.484 22.2853C161.317 22.2853 160.308 22.0971 159.454 21.7207C158.606 21.3443 157.938 20.8195 157.45 20.1462C156.968 19.4729 156.695 18.6909 156.631 17.8003H158.667C158.72 18.4153 158.927 18.9242 159.287 19.3271C159.653 19.7247 160.114 20.0216 160.671 20.2177C161.233 20.4086 161.837 20.504 162.484 20.504C163.237 20.504 163.913 20.3821 164.512 20.1382C165.111 19.8891 165.585 19.5445 165.935 19.1044C166.285 18.6591 166.46 18.1396 166.46 17.5458C166.46 17.0051 166.309 16.5651 166.007 16.2258C165.704 15.8865 165.307 15.6108 164.814 15.3988C164.321 15.1867 163.788 15.0012 163.215 14.8421L161.211 14.2696C159.939 13.9038 158.932 13.3816 158.19 12.703C157.447 12.0244 157.076 11.1364 157.076 10.039C157.076 9.12718 157.323 8.33197 157.816 7.65339C158.314 6.9695 158.982 6.43936 159.82 6.06296C160.663 5.68126 161.604 5.49041 162.643 5.49041C163.693 5.49041 164.626 5.67861 165.442 6.05501C166.258 6.42611 166.905 6.93504 167.382 7.58182C167.865 8.22859 168.119 8.96284 168.146 9.78456H166.237ZM176.478 22.2535C175.301 22.2535 174.285 21.9937 173.432 21.4742C172.584 20.9493 171.929 20.2177 171.468 19.2794C171.012 18.3357 170.784 17.2384 170.784 15.9872C170.784 14.7361 171.012 13.6334 171.468 12.6791C171.929 11.7196 172.57 10.9721 173.392 10.4366C174.219 9.89589 175.184 9.62551 176.287 9.62551C176.923 9.62551 177.551 9.73154 178.171 9.9436C178.792 10.1557 179.356 10.5002 179.865 10.9774C180.374 11.4492 180.78 12.0748 181.082 12.8541C181.384 13.6334 181.535 14.5929 181.535 15.7327V16.528H172.12V14.9057H179.627C179.627 14.2165 179.489 13.6016 179.213 13.0608C178.943 12.5201 178.556 12.0933 178.052 11.7805C177.554 11.4678 176.965 11.3114 176.287 11.3114C175.539 11.3114 174.892 11.4969 174.346 11.868C173.806 12.2338 173.389 12.7109 173.098 13.2994C172.806 13.8879 172.661 14.5187 172.661 15.192V16.2735C172.661 17.1959 172.82 17.9779 173.138 18.6194C173.461 19.2555 173.909 19.7406 174.482 20.0746C175.054 20.4033 175.719 20.5676 176.478 20.5676C176.971 20.5676 177.416 20.4987 177.814 20.3609C178.216 20.2177 178.564 20.0057 178.855 19.7247C179.147 19.4384 179.372 19.0832 179.531 18.6591L181.344 19.1681C181.153 19.783 180.833 20.3238 180.382 20.7903C179.931 21.2515 179.375 21.612 178.712 21.8718C178.049 22.1263 177.305 22.2535 176.478 22.2535ZM189.352 22.2535C188.207 22.2535 187.221 21.9831 186.394 21.4424C185.567 20.9016 184.931 20.1568 184.485 19.2078C184.04 18.2589 183.817 17.1747 183.817 15.9554C183.817 14.7149 184.045 13.6201 184.501 12.6712C184.962 11.7169 185.604 10.9721 186.426 10.4366C187.253 9.89589 188.218 9.62551 189.32 9.62551C190.179 9.62551 190.953 9.78456 191.642 10.1026C192.331 10.4207 192.896 10.866 193.336 11.4386C193.776 12.0112 194.049 12.6791 194.155 13.4425H192.278C192.135 12.8859 191.817 12.3929 191.324 11.9634C190.836 11.5287 190.179 11.3114 189.352 11.3114C188.62 11.3114 187.979 11.5022 187.428 11.8839C186.882 12.2603 186.455 12.7931 186.147 13.4823C185.845 14.1662 185.694 14.9693 185.694 15.8918C185.694 16.8354 185.843 17.6572 186.139 18.3569C186.442 19.0567 186.866 19.6001 187.412 19.9871C187.963 20.3741 188.61 20.5676 189.352 20.5676C189.84 20.5676 190.282 20.4828 190.68 20.3132C191.078 20.1435 191.414 19.8997 191.69 19.5816C191.966 19.2635 192.162 18.8818 192.278 18.4365H194.155C194.049 19.1575 193.787 19.8069 193.368 20.3847C192.954 20.9573 192.406 21.4132 191.722 21.7525C191.043 22.0865 190.253 22.2535 189.352 22.2535ZM204.596 17.0051V9.78456H206.473V21.999H204.596V19.9315H204.469C204.183 20.5517 203.737 21.0792 203.133 21.5139C202.529 21.9434 201.765 22.1581 200.843 22.1581C200.079 22.1581 199.401 21.9911 198.807 21.6571C198.213 21.3178 197.747 20.8089 197.408 20.1303C197.068 19.4464 196.899 18.5849 196.899 17.5458V9.78456H198.775V17.4186C198.775 18.3092 199.024 19.0196 199.523 19.5498C200.026 20.0799 200.668 20.345 201.447 20.345C201.914 20.345 202.388 20.2257 202.871 19.9871C203.358 19.7486 203.767 19.3828 204.095 18.8897C204.429 18.3967 204.596 17.7685 204.596 17.0051ZM209.91 21.999V9.78456H211.723V11.6295H211.851C212.073 11.0251 212.476 10.5347 213.059 10.1583C213.642 9.78191 214.3 9.59371 215.031 9.59371C215.169 9.59371 215.342 9.59636 215.548 9.60166C215.755 9.60696 215.911 9.61491 216.018 9.62551V11.534C215.954 11.5181 215.808 11.4943 215.58 11.4625C215.358 11.4253 215.122 11.4068 214.872 11.4068C214.279 11.4068 213.749 11.5314 213.282 11.7805C212.821 12.0244 212.455 12.3637 212.185 12.7984C211.92 13.2278 211.787 13.7182 211.787 14.2696V21.999H209.91ZM222.992 22.2535C221.815 22.2535 220.799 21.9937 219.946 21.4742C219.098 20.9493 218.443 20.2177 217.982 19.2794C217.526 18.3357 217.298 17.2384 217.298 15.9872C217.298 14.7361 217.526 13.6334 217.982 12.6791C218.443 11.7196 219.084 10.9721 219.906 10.4366C220.733 9.89589 221.698 9.62551 222.801 9.62551C223.437 9.62551 224.065 9.73154 224.685 9.9436C225.306 10.1557 225.87 10.5002 226.379 10.9774C226.888 11.4492 227.294 12.0748 227.596 12.8541C227.898 13.6334 228.049 14.5929 228.049 15.7327V16.528H218.634V14.9057H226.141C226.141 14.2165 226.003 13.6016 225.727 13.0608C225.457 12.5201 225.07 12.0933 224.566 11.7805C224.068 11.4678 223.479 11.3114 222.801 11.3114C222.053 11.3114 221.406 11.4969 220.86 11.868C220.32 12.2338 219.903 12.7109 219.612 13.2994C219.32 13.8879 219.175 14.5187 219.175 15.192V16.2735C219.175 17.1959 219.334 17.9779 219.652 18.6194C219.975 19.2555 220.423 19.7406 220.996 20.0746C221.568 20.4033 222.233 20.5676 222.992 20.5676C223.485 20.5676 223.93 20.4987 224.327 20.3609C224.73 20.2177 225.078 20.0057 225.369 19.7247C225.661 19.4384 225.886 19.0832 226.045 18.6591L227.858 19.1681C227.667 19.783 227.347 20.3238 226.896 20.7903C226.445 21.2515 225.889 21.612 225.226 21.8718C224.563 22.1263 223.819 22.2535 222.992 22.2535ZM239.429 5.71307V21.999H237.456V5.71307H239.429ZM245.005 14.6513V21.999H243.128V9.78456H244.941V11.6931H245.1C245.387 11.0728 245.821 10.5745 246.405 10.1981C246.988 9.81637 247.741 9.62551 248.663 9.62551C249.49 9.62551 250.214 9.79516 250.834 10.1345C251.454 10.4684 251.937 10.9774 252.281 11.6613C252.626 12.3398 252.798 13.1987 252.798 14.2377V21.999H250.921V14.365C250.921 13.4054 250.672 12.6579 250.174 12.1225C249.676 11.5817 248.992 11.3114 248.122 11.3114C247.523 11.3114 246.988 11.4412 246.516 11.701C246.049 11.9608 245.681 12.3398 245.411 12.8382C245.14 13.3365 245.005 13.9409 245.005 14.6513ZM265.778 9.78456L261.261 21.999H259.353L254.836 9.78456H256.872L260.243 19.518H260.371L263.742 9.78456H265.778ZM272.939 22.2535C271.762 22.2535 270.747 21.9937 269.893 21.4742C269.045 20.9493 268.39 20.2177 267.929 19.2794C267.473 18.3357 267.245 17.2384 267.245 15.9872C267.245 14.7361 267.473 13.6334 267.929 12.6791C268.39 11.7196 269.032 10.9721 269.853 10.4366C270.68 9.89589 271.645 9.62551 272.748 9.62551C273.384 9.62551 274.012 9.73154 274.633 9.9436C275.253 10.1557 275.818 10.5002 276.326 10.9774C276.835 11.4492 277.241 12.0748 277.543 12.8541C277.845 13.6334 277.996 14.5929 277.996 15.7327V16.528H268.581V14.9057H276.088C276.088 14.2165 275.95 13.6016 275.674 13.0608C275.404 12.5201 275.017 12.0933 274.513 11.7805C274.015 11.4678 273.427 11.3114 272.748 11.3114C272 11.3114 271.354 11.4969 270.808 11.868C270.267 12.2338 269.851 12.7109 269.559 13.2994C269.268 13.8879 269.122 14.5187 269.122 15.192V16.2735C269.122 17.1959 269.281 17.9779 269.599 18.6194C269.922 19.2555 270.37 19.7406 270.943 20.0746C271.515 20.4033 272.181 20.5676 272.939 20.5676C273.432 20.5676 273.877 20.4987 274.275 20.3609C274.678 20.2177 275.025 20.0057 275.317 19.7247C275.608 19.4384 275.833 19.0832 275.992 18.6591L277.806 19.1681C277.615 19.783 277.294 20.3238 276.843 20.7903C276.393 21.2515 275.836 21.612 275.173 21.8718C274.511 22.1263 273.766 22.2535 272.939 22.2535ZM289.503 12.5201L287.817 12.9972C287.711 12.7162 287.555 12.4432 287.348 12.1781C287.147 11.9078 286.871 11.6851 286.521 11.5102C286.171 11.3352 285.723 11.2477 285.177 11.2477C284.43 11.2477 283.807 11.42 283.308 11.7646C282.815 12.1039 282.569 12.536 282.569 13.0608C282.569 13.5274 282.739 13.8958 283.078 14.1662C283.417 14.4366 283.947 14.6619 284.668 14.8421L286.481 15.2874C287.573 15.5525 288.387 15.9581 288.923 16.5041C289.458 17.0448 289.726 17.742 289.726 18.5955C289.726 19.2953 289.524 19.9209 289.121 20.4722C288.724 21.0236 288.167 21.4583 287.451 21.7764C286.736 22.0944 285.903 22.2535 284.955 22.2535C283.709 22.2535 282.678 21.9831 281.861 21.4424C281.045 20.9016 280.528 20.1117 280.31 19.0726L282.092 18.6273C282.261 19.2847 282.582 19.7777 283.054 20.1064C283.531 20.4351 284.154 20.5994 284.923 20.5994C285.797 20.5994 286.492 20.4139 287.006 20.0428C287.526 19.6664 287.785 19.2158 287.785 18.6909C287.785 18.2668 287.637 17.9116 287.34 17.6254C287.043 17.3338 286.587 17.1164 285.972 16.9733L283.937 16.4962C282.818 16.2311 281.996 15.8202 281.471 15.2636C280.952 14.7016 280.692 13.9992 280.692 13.1563C280.692 12.4671 280.886 11.8574 281.273 11.3273C281.665 10.7971 282.198 10.381 282.871 10.0788C283.55 9.7766 284.318 9.62551 285.177 9.62551C286.386 9.62551 287.335 9.89059 288.024 10.4207C288.719 10.9509 289.212 11.6507 289.503 12.5201ZM297.863 9.78456V11.375H291.533V9.78456H297.863ZM293.378 6.85817H295.254V18.5001C295.254 19.0302 295.331 19.4278 295.485 19.6929C295.644 19.9527 295.846 20.1276 296.089 20.2177C296.339 20.3026 296.601 20.345 296.877 20.345C297.083 20.345 297.253 20.3344 297.386 20.3132C297.518 20.2867 297.624 20.2655 297.704 20.2496L298.085 21.9354C297.958 21.9831 297.781 22.0308 297.553 22.0785C297.325 22.1316 297.036 22.1581 296.686 22.1581C296.156 22.1581 295.636 22.0441 295.127 21.8161C294.624 21.5882 294.205 21.2409 293.871 20.7744C293.542 20.3079 293.378 19.7194 293.378 19.009V6.85817ZM300.686 21.999V9.78456H302.499V11.6931H302.658C302.912 11.041 303.323 10.5347 303.891 10.1742C304.458 9.80841 305.139 9.62551 305.934 9.62551C306.74 9.62551 307.411 9.80841 307.946 10.1742C308.487 10.5347 308.908 11.041 309.21 11.6931H309.338C309.65 11.0622 310.12 10.5612 310.745 10.1901C311.371 9.81371 312.121 9.62551 312.996 9.62551C314.088 9.62551 314.981 9.96746 315.676 10.6513C316.37 11.3299 316.717 12.3876 316.717 13.8242V21.999H314.841V13.8242C314.841 12.923 314.594 12.2789 314.101 11.8919C313.608 11.5049 313.027 11.3114 312.36 11.3114C311.501 11.3114 310.835 11.5711 310.364 12.0907C309.892 12.6049 309.656 13.257 309.656 14.0469V21.999H307.747V13.6334C307.747 12.9389 307.522 12.3796 307.071 11.9555C306.621 11.5261 306.04 11.3114 305.33 11.3114C304.842 11.3114 304.386 11.4412 303.962 11.701C303.543 11.9608 303.204 12.3213 302.944 12.7825C302.69 13.2384 302.563 13.7659 302.563 14.365V21.999H300.686ZM325.27 22.2535C324.093 22.2535 323.078 21.9937 322.224 21.4742C321.376 20.9493 320.721 20.2177 320.26 19.2794C319.804 18.3357 319.576 17.2384 319.576 15.9872C319.576 14.7361 319.804 13.6334 320.26 12.6791C320.721 11.7196 321.363 10.9721 322.184 10.4366C323.011 9.89589 323.976 9.62551 325.079 9.62551C325.715 9.62551 326.343 9.73154 326.964 9.9436C327.584 10.1557 328.148 10.5002 328.657 10.9774C329.166 11.4492 329.572 12.0748 329.874 12.8541C330.176 13.6334 330.327 14.5929 330.327 15.7327V16.528H320.912V14.9057H328.419C328.419 14.2165 328.281 13.6016 328.005 13.0608C327.735 12.5201 327.348 12.0933 326.844 11.7805C326.346 11.4678 325.758 11.3114 325.079 11.3114C324.331 11.3114 323.685 11.4969 323.139 11.868C322.598 12.2338 322.182 12.7109 321.89 13.2994C321.599 13.8879 321.453 14.5187 321.453 15.192V16.2735C321.453 17.1959 321.612 17.9779 321.93 18.6194C322.253 19.2555 322.701 19.7406 323.274 20.0746C323.846 20.4033 324.512 20.5676 325.27 20.5676C325.763 20.5676 326.208 20.4987 326.606 20.3609C327.009 20.2177 327.356 20.0057 327.647 19.7247C327.939 19.4384 328.164 19.0832 328.323 18.6591L330.137 19.1681C329.946 19.783 329.625 20.3238 329.174 20.7903C328.724 21.2515 328.167 21.612 327.504 21.8718C326.842 22.1263 326.097 22.2535 325.27 22.2535ZM335.059 14.6513V21.999H333.182V9.78456H334.995V11.6931H335.154C335.441 11.0728 335.875 10.5745 336.458 10.1981C337.042 9.81637 337.794 9.62551 338.717 9.62551C339.544 9.62551 340.268 9.79516 340.888 10.1345C341.508 10.4684 341.99 10.9774 342.335 11.6613C342.68 12.3398 342.852 13.1987 342.852 14.2377V21.999H340.975V14.365C340.975 13.4054 340.726 12.6579 340.228 12.1225C339.729 11.5817 339.046 11.3114 338.176 11.3114C337.577 11.3114 337.042 11.4412 336.57 11.701C336.103 11.9608 335.735 12.3398 335.464 12.8382C335.194 13.3365 335.059 13.9409 335.059 14.6513ZM351.593 9.78456V11.375H345.263V9.78456H351.593ZM347.108 6.85817H348.985V18.5001C348.985 19.0302 349.062 19.4278 349.216 19.6929C349.375 19.9527 349.576 20.1276 349.82 20.2177C350.069 20.3026 350.332 20.345 350.607 20.345C350.814 20.345 350.984 20.3344 351.116 20.3132C351.249 20.2867 351.355 20.2655 351.434 20.2496L351.816 21.9354C351.689 21.9831 351.511 22.0308 351.283 22.0785C351.055 22.1316 350.766 22.1581 350.416 22.1581C349.886 22.1581 349.367 22.0441 348.858 21.8161C348.354 21.5882 347.935 21.2409 347.601 20.7744C347.273 20.3079 347.108 19.7194 347.108 19.009V6.85817ZM362.85 12.5201L361.164 12.9972C361.058 12.7162 360.901 12.4432 360.695 12.1781C360.493 11.9078 360.217 11.6851 359.868 11.5102C359.518 11.3352 359.07 11.2477 358.524 11.2477C357.776 11.2477 357.153 11.42 356.655 11.7646C356.162 12.1039 355.915 12.536 355.915 13.0608C355.915 13.5274 356.085 13.8958 356.424 14.1662C356.764 14.4366 357.294 14.6619 358.015 14.8421L359.828 15.2874C360.92 15.5525 361.734 15.9581 362.269 16.5041C362.805 17.0448 363.072 17.742 363.072 18.5955C363.072 19.2953 362.871 19.9209 362.468 20.4722C362.07 21.0236 361.514 21.4583 360.798 21.7764C360.082 22.0944 359.25 22.2535 358.301 22.2535C357.055 22.2535 356.024 21.9831 355.208 21.4424C354.391 20.9016 353.874 20.1117 353.657 19.0726L355.438 18.6273C355.608 19.2847 355.929 19.7777 356.4 20.1064C356.878 20.4351 357.5 20.5994 358.269 20.5994C359.144 20.5994 359.838 20.4139 360.353 20.0428C360.872 19.6664 361.132 19.2158 361.132 18.6909C361.132 18.2668 360.983 17.9116 360.687 17.6254C360.39 17.3338 359.934 17.1164 359.319 16.9733L357.283 16.4962C356.164 16.2311 355.343 15.8202 354.818 15.2636C354.298 14.7016 354.039 13.9992 354.039 13.1563C354.039 12.4671 354.232 11.8574 354.619 11.3273C355.011 10.7971 355.544 10.381 356.217 10.0788C356.896 9.7766 357.665 9.62551 358.524 9.62551C359.732 9.62551 360.681 9.89059 361.37 10.4207C362.065 10.9509 362.558 11.6507 362.85 12.5201Z" fill="#18237D"/>
<path d="M167.921 40.9427C167.921 41.7339 167.735 42.4803 167.361 43.182C166.988 43.8836 166.391 44.4584 165.57 44.9063C164.749 45.3392 163.696 45.5557 162.413 45.5557H159.591V51.8705H157.038V36.3073H162.413C163.607 36.3073 164.615 36.5163 165.436 36.9343C166.272 37.3374 166.891 37.8897 167.294 38.5914C167.712 39.293 167.921 40.0768 167.921 40.9427ZM162.413 43.4731C163.383 43.4731 164.107 43.2566 164.585 42.8237C165.062 42.3758 165.301 41.7488 165.301 40.9427C165.301 39.2408 164.338 38.3898 162.413 38.3898H159.591V43.4731H162.413ZM172.909 35.2996V51.8705H170.356V35.2996H172.909ZM175.41 45.6452C175.41 44.4061 175.663 43.3089 176.171 42.3534C176.693 41.398 177.395 40.659 178.276 40.1365C179.172 39.5991 180.157 39.3304 181.232 39.3304C182.202 39.3304 183.046 39.5244 183.762 39.9126C184.494 40.2858 185.076 40.7561 185.509 41.3234V39.5319H188.084V51.8705H185.509V50.0343C185.076 50.6165 184.486 51.1017 183.74 51.4899C182.993 51.878 182.142 52.0721 181.187 52.0721C180.127 52.0721 179.157 51.8034 178.276 51.2659C177.395 50.7136 176.693 49.9522 176.171 48.9818C175.663 47.9965 175.41 46.8843 175.41 45.6452ZM185.509 45.69C185.509 44.8391 185.33 44.1001 184.971 43.4731C184.628 42.8461 184.173 42.3684 183.605 42.0399C183.038 41.7115 182.426 41.5473 181.769 41.5473C181.112 41.5473 180.5 41.7115 179.933 42.0399C179.366 42.3534 178.903 42.8237 178.545 43.4507C178.201 44.0628 178.03 44.7943 178.03 45.6452C178.03 46.4962 178.201 47.2426 178.545 47.8846C178.903 48.5265 179.366 49.0191 179.933 49.3625C180.515 49.6909 181.127 49.8552 181.769 49.8552C182.426 49.8552 183.038 49.6909 183.605 49.3625C184.173 49.0341 184.628 48.5564 184.971 47.9293C185.33 47.2874 185.509 46.541 185.509 45.69ZM194.415 41.6145V48.4444C194.415 48.9072 194.52 49.2431 194.729 49.4521C194.953 49.6462 195.326 49.7432 195.849 49.7432H197.416V51.8705H195.401C194.251 51.8705 193.37 51.6018 192.758 51.0644C192.146 50.527 191.84 49.6536 191.84 48.4444V41.6145H190.385V39.5319H191.84V36.464H194.415V39.5319H197.416V41.6145H194.415ZM204.942 41.6145H202.658V51.8705H200.082V41.6145H198.627V39.5319H200.082V38.6586C200.082 37.2403 200.456 36.2102 201.202 35.5683C201.963 34.9114 203.15 34.583 204.763 34.583V36.7104C203.986 36.7104 203.441 36.8596 203.128 37.1582C202.814 37.4419 202.658 37.942 202.658 38.6586V39.5319H204.942V41.6145ZM212.556 52.0721C211.392 52.0721 210.339 51.8108 209.399 51.2883C208.458 50.7509 207.719 50.0044 207.182 49.049C206.644 48.0786 206.376 46.959 206.376 45.69C206.376 44.436 206.652 43.3238 207.204 42.3534C207.757 41.3831 208.51 40.6366 209.466 40.1141C210.421 39.5916 211.489 39.3304 212.668 39.3304C213.847 39.3304 214.915 39.5916 215.87 40.1141C216.826 40.6366 217.58 41.3831 218.132 42.3534C218.684 43.3238 218.961 44.436 218.961 45.69C218.961 46.944 218.677 48.0562 218.11 49.0266C217.542 49.997 216.766 50.7509 215.781 51.2883C214.81 51.8108 213.736 52.0721 212.556 52.0721ZM212.556 49.8552C213.213 49.8552 213.825 49.6984 214.392 49.3849C214.975 49.0714 215.445 48.6011 215.803 47.9741C216.161 47.3471 216.341 46.5858 216.341 45.69C216.341 44.7943 216.169 44.0404 215.826 43.4283C215.482 42.8013 215.027 42.331 214.46 42.0175C213.892 41.704 213.28 41.5473 212.623 41.5473C211.966 41.5473 211.354 41.704 210.787 42.0175C210.235 42.331 209.794 42.8013 209.466 43.4283C209.137 44.0404 208.973 44.7943 208.973 45.69C208.973 47.0187 209.309 48.0488 209.981 48.7803C210.668 49.4969 211.526 49.8552 212.556 49.8552ZM224.037 41.3234C224.41 40.6963 224.903 40.2112 225.515 39.8678C226.142 39.5095 226.881 39.3304 227.732 39.3304V41.9728H227.083C226.082 41.9728 225.321 42.2265 224.798 42.7341C224.291 43.2417 224.037 44.1225 224.037 45.3765V51.8705H221.484V39.5319H224.037V41.3234ZM245.015 39.3304C245.985 39.3304 246.851 39.5319 247.612 39.935C248.389 40.3381 248.993 40.9352 249.426 41.7264C249.874 42.5177 250.098 43.4731 250.098 44.5928V51.8705H247.568V44.9734C247.568 43.8687 247.291 43.0252 246.739 42.443C246.187 41.8459 245.433 41.5473 244.477 41.5473C243.522 41.5473 242.76 41.8459 242.193 42.443C241.641 43.0252 241.365 43.8687 241.365 44.9734V51.8705H238.834V44.9734C238.834 43.8687 238.558 43.0252 238.006 42.443C237.453 41.8459 236.699 41.5473 235.744 41.5473C234.789 41.5473 234.027 41.8459 233.46 42.443C232.907 43.0252 232.631 43.8687 232.631 44.9734V51.8705H230.078V39.5319H232.631V40.9427C233.049 40.4351 233.579 40.0395 234.221 39.7558C234.863 39.4722 235.55 39.3304 236.281 39.3304C237.267 39.3304 238.147 39.5394 238.924 39.9574C239.7 40.3754 240.297 40.98 240.715 41.7712C241.088 41.0248 241.671 40.4351 242.462 40.0022C243.253 39.5543 244.104 39.3304 245.015 39.3304ZM264.336 41.6145H262.052V51.8705H259.477V41.6145H258.021V39.5319H259.477V38.6586C259.477 37.2403 259.85 36.2102 260.597 35.5683C261.358 34.9114 262.545 34.583 264.157 34.583V36.7104C263.381 36.7104 262.836 36.8596 262.522 37.1582C262.209 37.4419 262.052 37.942 262.052 38.6586V39.5319H264.336V41.6145ZM271.951 52.0721C270.786 52.0721 269.734 51.8108 268.793 51.2883C267.853 50.7509 267.114 50.0044 266.576 49.049C266.039 48.0786 265.77 46.959 265.77 45.69C265.77 44.436 266.046 43.3238 266.599 42.3534C267.151 41.3831 267.905 40.6366 268.86 40.1141C269.816 39.5916 270.883 39.3304 272.063 39.3304C273.242 39.3304 274.309 39.5916 275.265 40.1141C276.22 40.6366 276.974 41.3831 277.526 42.3534C278.079 43.3238 278.355 44.436 278.355 45.69C278.355 46.944 278.071 48.0562 277.504 49.0266C276.937 49.997 276.161 50.7509 275.175 51.2883C274.205 51.8108 273.13 52.0721 271.951 52.0721ZM271.951 49.8552C272.607 49.8552 273.22 49.6984 273.787 49.3849C274.369 49.0714 274.839 48.6011 275.198 47.9741C275.556 47.3471 275.735 46.5858 275.735 45.69C275.735 44.7943 275.563 44.0404 275.22 43.4283C274.877 42.8013 274.421 42.331 273.854 42.0175C273.287 41.704 272.675 41.5473 272.018 41.5473C271.361 41.5473 270.749 41.704 270.182 42.0175C269.629 42.331 269.189 42.8013 268.86 43.4283C268.532 44.0404 268.368 44.7943 268.368 45.69C268.368 47.0187 268.704 48.0488 269.375 48.7803C270.062 49.4969 270.921 49.8552 271.951 49.8552ZM283.431 41.3234C283.805 40.6963 284.297 40.2112 284.909 39.8678C285.536 39.5095 286.275 39.3304 287.126 39.3304V41.9728H286.477C285.477 41.9728 284.715 42.2265 284.193 42.7341C283.685 43.2417 283.431 44.1225 283.431 45.3765V51.8705H280.879V39.5319H283.431V41.3234ZM297.843 36.3073V51.8705H295.29V36.3073H297.843ZM307.42 39.3304C308.39 39.3304 309.256 39.5319 310.017 39.935C310.794 40.3381 311.398 40.9352 311.831 41.7264C312.264 42.5177 312.481 43.4731 312.481 44.5928V51.8705H309.95V44.9734C309.95 43.8687 309.674 43.0252 309.122 42.443C308.569 41.8459 307.815 41.5473 306.86 41.5473C305.904 41.5473 305.143 41.8459 304.576 42.443C304.023 43.0252 303.747 43.8687 303.747 44.9734V51.8705H301.194V39.5319H303.747V40.9427C304.165 40.4351 304.695 40.0395 305.337 39.7558C305.994 39.4722 306.688 39.3304 307.42 39.3304ZM314.886 45.6452C314.886 44.4061 315.14 43.3089 315.647 42.3534C316.17 41.398 316.871 40.659 317.752 40.1365C318.648 39.5991 319.641 39.3304 320.73 39.3304C321.537 39.3304 322.328 39.5095 323.104 39.8678C323.895 40.2112 324.522 40.6739 324.985 41.2562V35.2996H327.56V51.8705H324.985V50.0119C324.567 50.6091 323.985 51.1017 323.239 51.4899C322.507 51.878 321.664 52.0721 320.708 52.0721C319.633 52.0721 318.648 51.8034 317.752 51.2659C316.871 50.7136 316.17 49.9522 315.647 48.9818C315.14 47.9965 314.886 46.8843 314.886 45.6452ZM324.985 45.69C324.985 44.8391 324.806 44.1001 324.448 43.4731C324.104 42.8461 323.649 42.3684 323.082 42.0399C322.514 41.7115 321.902 41.5473 321.246 41.5473C320.589 41.5473 319.977 41.7115 319.409 42.0399C318.842 42.3534 318.379 42.8237 318.021 43.4507C317.678 44.0628 317.506 44.7943 317.506 45.6452C317.506 46.4962 317.678 47.2426 318.021 47.8846C318.379 48.5265 318.842 49.0191 319.409 49.3625C319.992 49.6909 320.604 49.8552 321.246 49.8552C321.902 49.8552 322.514 49.6909 323.082 49.3625C323.649 49.0341 324.104 48.5564 324.448 47.9293C324.806 47.2874 324.985 46.541 324.985 45.69ZM336.265 52.0721C335.101 52.0721 334.048 51.8108 333.108 51.2883C332.167 50.7509 331.428 50.0044 330.891 49.049C330.354 48.0786 330.085 46.959 330.085 45.69C330.085 44.436 330.361 43.3238 330.913 42.3534C331.466 41.3831 332.22 40.6366 333.175 40.1141C334.131 39.5916 335.198 39.3304 336.377 39.3304C337.557 39.3304 338.624 39.5916 339.58 40.1141C340.535 40.6366 341.289 41.3831 341.841 42.3534C342.394 43.3238 342.67 44.436 342.67 45.69C342.67 46.944 342.386 48.0562 341.819 49.0266C341.252 49.997 340.475 50.7509 339.49 51.2883C338.52 51.8108 337.445 52.0721 336.265 52.0721ZM336.265 49.8552C336.922 49.8552 337.534 49.6984 338.102 49.3849C338.684 49.0714 339.154 48.6011 339.512 47.9741C339.871 47.3471 340.05 46.5858 340.05 45.69C340.05 44.7943 339.878 44.0404 339.535 43.4283C339.191 42.8013 338.736 42.331 338.169 42.0175C337.602 41.704 336.989 41.5473 336.333 41.5473C335.676 41.5473 335.064 41.704 334.496 42.0175C333.944 42.331 333.504 42.8013 333.175 43.4283C332.847 44.0404 332.682 44.7943 332.682 45.69C332.682 47.0187 333.018 48.0488 333.69 48.7803C334.377 49.4969 335.235 49.8552 336.265 49.8552ZM351.419 39.3304C352.389 39.3304 353.255 39.5319 354.016 39.935C354.793 40.3381 355.397 40.9352 355.83 41.7264C356.263 42.5177 356.48 43.4731 356.48 44.5928V51.8705H353.949V44.9734C353.949 43.8687 353.673 43.0252 353.121 42.443C352.568 41.8459 351.814 41.5473 350.859 41.5473C349.904 41.5473 349.142 41.8459 348.575 42.443C348.022 43.0252 347.746 43.8687 347.746 44.9734V51.8705H345.193V39.5319H347.746V40.9427C348.164 40.4351 348.694 40.0395 349.336 39.7558C349.993 39.4722 350.687 39.3304 351.419 39.3304ZM371.044 45.3989C371.044 45.8617 371.015 46.2797 370.955 46.6529H361.527C361.602 47.6382 361.968 48.4295 362.625 49.0266C363.282 49.6238 364.088 49.9223 365.043 49.9223C366.417 49.9223 367.387 49.3476 367.954 48.1981H370.709C370.335 49.3326 369.656 50.2657 368.671 50.9972C367.7 51.7138 366.491 52.0721 365.043 52.0721C363.864 52.0721 362.804 51.8108 361.863 51.2883C360.938 50.7509 360.206 50.0044 359.669 49.049C359.146 48.0786 358.885 46.959 358.885 45.69C358.885 44.4211 359.139 43.3089 359.646 42.3534C360.169 41.3831 360.893 40.6366 361.818 40.1141C362.759 39.5916 363.834 39.3304 365.043 39.3304C366.208 39.3304 367.245 39.5841 368.156 40.0917C369.066 40.5993 369.776 41.3159 370.283 42.2415C370.791 43.1521 371.044 44.2046 371.044 45.3989ZM368.38 44.5928C368.365 43.6522 368.029 42.8983 367.372 42.331C366.715 41.7638 365.902 41.4801 364.931 41.4801C364.05 41.4801 363.296 41.7638 362.669 42.331C362.042 42.8834 361.669 43.6373 361.55 44.5928H368.38ZM378.035 52.0721C377.065 52.0721 376.192 51.9004 375.415 51.557C374.654 51.1987 374.049 50.721 373.601 50.1239C373.154 49.5118 372.915 48.8325 372.885 48.0861H375.527C375.572 48.6086 375.818 49.049 376.266 49.4073C376.729 49.7507 377.304 49.9223 377.991 49.9223C378.707 49.9223 379.26 49.788 379.648 49.5193C380.051 49.2356 380.252 48.8773 380.252 48.4444C380.252 47.9816 380.028 47.6382 379.58 47.4143C379.148 47.1904 378.453 46.944 377.498 46.6753C376.572 46.4215 375.818 46.1752 375.236 45.9363C374.654 45.6975 374.146 45.3317 373.713 44.8391C373.295 44.3464 373.086 43.697 373.086 42.8909C373.086 42.234 373.281 41.6369 373.669 41.0994C374.057 40.5471 374.609 40.1141 375.326 39.8006C376.057 39.4871 376.893 39.3304 377.834 39.3304C379.237 39.3304 380.364 39.6886 381.215 40.4052C382.081 41.1069 382.544 42.0698 382.604 43.294H380.051C380.006 42.7416 379.782 42.3012 379.379 41.9728C378.976 41.6443 378.431 41.4801 377.744 41.4801C377.072 41.4801 376.557 41.607 376.199 41.8608C375.841 42.1146 375.662 42.4505 375.662 42.8685C375.662 43.1969 375.781 43.4731 376.02 43.697C376.259 43.921 376.55 44.1001 376.893 44.2345C377.237 44.3539 377.744 44.5106 378.416 44.7047C379.312 44.9436 380.043 45.1899 380.611 45.4437C381.193 45.6826 381.693 46.0409 382.111 46.5186C382.529 46.9963 382.745 47.6308 382.76 48.422C382.76 49.1236 382.566 49.7507 382.178 50.303C381.79 50.8554 381.238 51.2883 380.521 51.6018C379.819 51.9153 378.991 52.0721 378.035 52.0721ZM386.817 37.8972C386.355 37.8972 385.967 37.7404 385.653 37.4269C385.34 37.1134 385.183 36.7253 385.183 36.2625C385.183 35.7997 385.34 35.4116 385.653 35.098C385.967 34.7845 386.355 34.6278 386.817 34.6278C387.265 34.6278 387.646 34.7845 387.96 35.098C388.273 35.4116 388.43 35.7997 388.43 36.2625C388.43 36.7253 388.273 37.1134 387.96 37.4269C387.646 37.7404 387.265 37.8972 386.817 37.8972ZM388.072 39.5319V51.8705H385.519V39.5319H388.072ZM390.572 45.6452C390.572 44.4061 390.826 43.3089 391.334 42.3534C391.856 41.398 392.558 40.659 393.439 40.1365C394.334 39.5991 395.32 39.3304 396.394 39.3304C397.365 39.3304 398.208 39.5244 398.925 39.9126C399.656 40.2858 400.239 40.7561 400.672 41.3234V39.5319H403.247V51.8705H400.672V50.0343C400.239 50.6165 399.649 51.1017 398.902 51.4899C398.156 51.878 397.305 52.0721 396.35 52.0721C395.29 52.0721 394.319 51.8034 393.439 51.2659C392.558 50.7136 391.856 49.9522 391.334 48.9818C390.826 47.9965 390.572 46.8843 390.572 45.6452ZM400.672 45.69C400.672 44.8391 400.492 44.1001 400.134 43.4731C399.791 42.8461 399.335 42.3684 398.768 42.0399C398.201 41.7115 397.589 41.5473 396.932 41.5473C396.275 41.5473 395.663 41.7115 395.096 42.0399C394.528 42.3534 394.066 42.8237 393.707 43.4507C393.364 44.0628 393.192 44.7943 393.192 45.6452C393.192 46.4962 393.364 47.2426 393.707 47.8846C394.066 48.5265 394.528 49.0191 395.096 49.3625C395.678 49.6909 396.29 49.8552 396.932 49.8552C397.589 49.8552 398.201 49.6909 398.768 49.3625C399.335 49.0341 399.791 48.5564 400.134 47.9293C400.492 47.2874 400.672 46.541 400.672 45.69Z" fill="#0CA052"/>
<path d="M7.45198 41.194C5.33624 40.3632 3.49199 38.9626 2.12381 37.1475C0.758208 35.2744 0.0153228 33.0196 0 30.7016H9.95584C10.0149 31.9363 10.5489 33.1004 11.4462 33.9506C12.3564 34.7289 13.5288 35.1313 14.7251 35.0759C15.8983 35.1409 17.0582 34.8016 18.0114 34.1146C18.4061 33.7955 18.7193 33.3872 18.9253 32.9234C19.1313 32.4596 19.2242 31.9535 19.1963 31.4468C19.2088 31.0107 19.1305 30.5769 18.9662 30.1728C18.802 29.7686 18.5555 29.4031 18.2424 29.0994C17.5568 28.4495 16.7589 27.9293 15.8876 27.5643C14.5912 27.0484 13.2678 26.6031 11.9232 26.2304C9.84531 25.6148 7.81541 24.8477 5.8498 23.9352C4.25261 23.1397 2.8661 21.9779 1.80338 20.5445C0.603069 18.8265 0.00799591 16.7581 0.11178 14.6649C0.0396382 13.0576 0.354642 11.4564 1.03028 9.99623C1.70592 8.53602 2.72243 7.25946 3.99426 6.27399C6.58258 4.24705 9.95336 3.23358 14.1066 3.23358C18.3393 3.23358 21.7498 4.24705 24.3382 6.27399C25.6201 7.28105 26.6593 8.56331 27.379 10.026C28.0988 11.4887 28.4806 13.0944 28.4964 14.7245H18.3766C18.3676 14.1673 18.2408 13.6182 18.0045 13.1135C17.7681 12.6087 17.4277 12.1597 17.0054 11.7959C16.0951 11.0603 14.9481 10.6814 13.7787 10.7303C12.7871 10.6832 11.813 11.0043 11.0438 11.632C10.6899 11.9621 10.4135 12.3666 10.2344 12.8162C10.0553 13.2659 9.978 13.7496 10.008 14.2327C10.0017 14.8309 10.1623 15.419 10.4716 15.931C10.7809 16.443 11.2268 16.8588 11.7592 17.1315C13.4993 18.0658 15.3326 18.8151 17.229 19.3671C19.2909 20.0391 21.3093 20.8379 23.2725 21.7592C24.8495 22.5496 26.2237 23.6919 27.2891 25.0977C28.4748 26.7301 29.0736 28.7156 28.9882 30.7314C29.0103 32.8369 28.4312 34.905 27.3189 36.693C26.1395 38.5429 24.4601 40.0208 22.4752 40.9555C20.1483 42.0566 17.5968 42.6001 15.0232 42.5428C12.4355 42.5927 9.8632 42.1344 7.45198 41.194Z" fill="#0B8748"/>
<path d="M44.0785 3.78516V42.1777H34.7263V3.78516H44.0785Z" fill="#0B8748"/>
<path d="M78.5885 22.2442C77.4938 24.1637 75.8585 25.7186 73.8863 26.7153C71.4391 27.9148 68.7332 28.4908 66.0096 28.392H60.212V42.1782H50.8597V3.78561H66.0096C68.6855 3.70177 71.3441 4.24268 73.7746 5.36543C75.7682 6.30767 77.4287 7.83307 78.5364 9.73974C79.6201 11.6937 80.1677 13.8996 80.1236 16.1335C80.1479 18.2688 79.6191 20.3739 78.5885 22.2442ZM69.3034 19.6956C69.7598 19.2284 70.1131 18.6706 70.3403 18.0583C70.5675 17.446 70.6636 16.7928 70.6224 16.141C70.6622 15.4893 70.5655 14.8365 70.3383 14.2244C70.1112 13.6123 69.7587 13.0544 69.3034 12.5864C68.424 11.7468 67.0901 11.327 65.3017 11.327H60.212V20.955H65.3017C67.0901 20.955 68.424 20.5352 69.3034 19.6956Z" fill="#0B8748"/>
<path d="M94.3419 4.10541V42.8557H84.9897V4.10541H94.3419Z" fill="#0B8748"/>
<path d="M135.469 34.4275H126.117L110.468 15.723V42.5502L101.116 42.6917V4.10541H110.468L126.117 22.8993V4.10541H135.469V34.4275Z" fill="#0B8748"/>
<path d="M146.804 38.1534L138.197 54.3987C138.114 54.5587 137.99 54.6938 137.837 54.7903C137.685 54.8868 137.51 54.9413 137.33 54.9481C137.149 54.9549 136.971 54.9138 136.811 54.8291C136.652 54.7444 136.518 54.6191 136.423 54.4658L135.141 52.4389C135.005 52.2197 134.791 52.0607 134.542 51.9943C134.292 51.9278 134.027 51.9589 133.8 52.0812C121.505 58.6413 107.685 61.8077 93.7606 61.2545C80.3503 60.6711 67.3127 56.6639 55.8897 49.6146C55.6695 49.4804 55.5077 49.2684 55.4365 49.0205C55.3652 48.7727 55.3897 48.5071 55.505 48.2765C55.6203 48.0458 55.8181 47.8669 56.0591 47.7752C56.3001 47.6835 56.5668 47.6857 56.8063 47.7814C68.1706 52.3122 86.5322 56.9697 107.308 51.716C114.601 49.8547 121.583 46.9374 128.032 43.0568C128.148 42.986 128.249 42.8927 128.329 42.7823C128.409 42.672 128.465 42.5468 128.496 42.4142C128.526 42.2816 128.53 42.1442 128.507 42.0101C128.484 41.8761 128.434 41.748 128.36 41.6335L126.624 38.8986C126.536 38.7485 126.488 38.5786 126.484 38.4049C126.48 38.2312 126.52 38.0594 126.601 37.9053C126.681 37.7513 126.799 37.6201 126.944 37.5241C127.089 37.428 127.256 37.3702 127.429 37.3561L145.783 36.6109C145.973 36.5884 146.166 36.6192 146.34 36.6998C146.514 36.7805 146.662 36.9079 146.768 37.0678C146.874 37.2278 146.933 37.4139 146.94 37.6056C146.946 37.7973 146.899 37.9869 146.804 38.1534Z" fill="#00A651" stroke="white" stroke-width="0.745198" stroke-miterlimit="10"/>
</svg>
