<svg width="29" height="28" viewBox="0 0 29 28" fill="none" xmlns="http://www.w3.org/2000/svg">
<circle opacity="0.1" cx="14.4499" cy="14.0651" r="13.6745" fill="#00A651"/>
<path d="M14.4492 13.2637C13.7862 13.2637 13.1503 13.0003 12.6815 12.5314C12.2126 12.0626 11.9492 11.4267 11.9492 10.7637C11.9492 10.1006 12.2126 9.46475 12.6815 8.9959C13.1503 8.52706 13.7862 8.26367 14.4492 8.26367C15.1123 8.26367 15.7481 8.52706 16.217 8.9959C16.6858 9.46475 16.9492 10.1006 16.9492 10.7637C16.9492 11.4267 16.6858 12.0626 16.217 12.5314C15.7481 13.0003 15.1123 13.2637 14.4492 13.2637ZM14.4492 9.26367C13.6192 9.26367 12.9492 9.93367 12.9492 10.7637C12.9492 11.5937 13.6192 12.2637 14.4492 12.2637C15.2792 12.2637 15.9492 11.5937 15.9492 10.7637C15.9492 9.93367 15.2792 9.26367 14.4492 9.26367Z" fill="#fff"/>
<path d="M20.4492 17.2637C20.1692 17.2637 19.9492 17.0437 19.9492 16.7637C19.9492 16.4837 20.1692 16.2637 20.4492 16.2637C20.7292 16.2637 20.9492 16.0437 20.9492 15.7637C20.9492 15.1006 20.6858 14.4647 20.217 13.9959C19.7481 13.5271 19.1123 13.2637 18.4492 13.2637H17.4492C17.1692 13.2637 16.9492 13.0437 16.9492 12.7637C16.9492 12.4837 17.1692 12.2637 17.4492 12.2637C18.2792 12.2637 18.9492 11.5937 18.9492 10.7637C18.9492 9.93367 18.2792 9.26367 17.4492 9.26367C17.1692 9.26367 16.9492 9.04367 16.9492 8.76367C16.9492 8.48367 17.1692 8.26367 17.4492 8.26367C18.1123 8.26367 18.7481 8.52706 19.217 8.9959C19.6858 9.46475 19.9492 10.1006 19.9492 10.7637C19.9492 11.3837 19.7292 11.9437 19.3492 12.3837C20.8392 12.7837 21.9492 14.1437 21.9492 15.7637C21.9492 16.5937 21.2792 17.2637 20.4492 17.2637ZM8.44922 17.2637C7.61922 17.2637 6.94922 16.5937 6.94922 15.7637C6.94922 14.1437 8.04922 12.7837 9.54922 12.3837C9.17922 11.9437 8.94922 11.3837 8.94922 10.7637C8.94922 10.1006 9.21261 9.46475 9.68145 8.9959C10.1503 8.52706 10.7862 8.26367 11.4492 8.26367C11.7292 8.26367 11.9492 8.48367 11.9492 8.76367C11.9492 9.04367 11.7292 9.26367 11.4492 9.26367C10.6192 9.26367 9.94922 9.93367 9.94922 10.7637C9.94922 11.5937 10.6192 12.2637 11.4492 12.2637C11.7292 12.2637 11.9492 12.4837 11.9492 12.7637C11.9492 13.0437 11.7292 13.2637 11.4492 13.2637H10.4492C9.78618 13.2637 9.15029 13.5271 8.68145 13.9959C8.21261 14.4647 7.94922 15.1006 7.94922 15.7637C7.94922 16.0437 8.16922 16.2637 8.44922 16.2637C8.72922 16.2637 8.94922 16.4837 8.94922 16.7637C8.94922 17.0437 8.72922 17.2637 8.44922 17.2637ZM17.4492 20.2637H11.4492C10.6192 20.2637 9.94922 19.5937 9.94922 18.7637V17.7637C9.94922 15.8337 11.5192 14.2637 13.4492 14.2637H15.4492C17.3792 14.2637 18.9492 15.8337 18.9492 17.7637V18.7637C18.9492 19.5937 18.2792 20.2637 17.4492 20.2637ZM13.4492 15.2637C12.7862 15.2637 12.1503 15.5271 11.6815 15.9959C11.2126 16.4647 10.9492 17.1006 10.9492 17.7637V18.7637C10.9492 19.0437 11.1692 19.2637 11.4492 19.2637H17.4492C17.7292 19.2637 17.9492 19.0437 17.9492 18.7637V17.7637C17.9492 17.1006 17.6858 16.4647 17.217 15.9959C16.7481 15.5271 16.1123 15.2637 15.4492 15.2637H13.4492Z" fill="#fff"/>
</svg>
