<svg width="133" height="53" viewBox="0 0 133 53" fill="none" xmlns="http://www.w3.org/2000/svg">
<path d="M6.69429 34.1007C4.79367 33.3544 3.13693 32.0962 1.90787 30.4657C0.681117 28.783 0.0137648 26.7575 0 24.6751H8.94357C8.99666 25.7843 9.47637 26.8301 10.2824 27.5939C11.1 28.293 12.1533 28.6545 13.2279 28.6047C14.2818 28.6631 15.3238 28.3583 16.1801 27.7411C16.5346 27.4545 16.816 27.0877 17.001 26.6711C17.1861 26.2544 17.2695 25.7998 17.2445 25.3446C17.2557 24.9529 17.1853 24.5631 17.0378 24.2001C16.8903 23.8371 16.6689 23.5087 16.3876 23.2359C15.7717 22.652 15.055 22.1848 14.2722 21.8568C13.1076 21.3934 11.9187 20.9934 10.7109 20.6586C8.84428 20.1056 7.02077 19.4165 5.25502 18.5967C3.82022 17.8821 2.57468 16.8384 1.62002 15.5508C0.541751 14.0075 0.00718292 12.1494 0.100414 10.269C0.0356079 8.82514 0.318583 7.38679 0.925527 6.07505C1.53247 4.7633 2.44562 3.61654 3.58814 2.73127C5.91329 0.910423 8.94134 0 12.6723 0C16.4746 0 19.5384 0.910423 21.8635 2.73127C23.0151 3.63594 23.9487 4.78782 24.5952 6.10179C25.2418 7.41576 25.5848 8.85823 25.599 10.3226H16.5081C16.5 9.82199 16.3861 9.32876 16.1738 8.87532C15.9615 8.42189 15.6557 8.01852 15.2764 7.69174C14.4586 7.0309 13.4282 6.69058 12.3777 6.73445C11.4869 6.69216 10.6119 6.98065 9.92093 7.54446C9.60301 7.84107 9.3547 8.20438 9.19382 8.60832C9.03294 9.01226 8.96348 9.44681 8.99043 9.88077C8.98481 10.4181 9.12902 10.9464 9.40689 11.4064C9.68477 11.8664 10.0853 12.2398 10.5636 12.4848C12.1268 13.3242 13.7736 13.9973 15.4772 14.4931C17.3295 15.0968 19.1426 15.8144 20.9063 16.642C22.3229 17.3521 23.5574 18.3782 24.5145 19.641C25.5796 21.1075 26.1175 22.8911 26.0408 24.7019C26.0606 26.5934 25.5404 28.4512 24.5413 30.0574C23.4818 31.7192 21.9731 33.0469 20.19 33.8865C18.0997 34.8757 15.8076 35.3639 13.4957 35.3124C11.1711 35.3572 8.86035 34.9456 6.69429 34.1007Z" fill="#1A237E"/>
<path d="M39.5966 0.495605V34.9846H31.1953V0.495605H39.5966Z" fill="#1A237E"/>
<path d="M70.5979 17.0781C69.6145 18.8024 68.1455 20.1993 66.3738 21.0947C64.1754 22.1722 61.7447 22.6896 59.298 22.6009H54.0898V34.9853H45.6885V0.496363H59.298C61.7018 0.421041 64.0901 0.906954 66.2734 1.91555C68.0643 2.76199 69.556 4.13228 70.5511 5.8451C71.5246 7.60042 72.0165 9.58199 71.9769 11.5888C71.9988 13.5069 71.5237 15.398 70.5979 17.0781ZM62.2568 14.7887C62.6669 14.369 62.9842 13.8679 63.1883 13.3179C63.3924 12.7678 63.4788 12.181 63.4417 11.5955C63.4775 11.0101 63.3906 10.4236 63.1865 9.87375C62.9825 9.32388 62.6658 8.82269 62.2568 8.40232C61.4669 7.64809 60.2686 7.27098 58.662 7.27098H54.0898V15.92H58.662C60.2686 15.92 61.4669 15.5429 62.2568 14.7887Z" fill="#1A237E"/>
<path d="M84.7495 0.783691V35.594H76.3481V0.783691H84.7495Z" fill="#1A237E"/>
<path d="M121.695 28.0227H113.294L99.2358 11.2201V35.3195L90.8345 35.4467V0.783691H99.2358L113.294 17.6667V0.783691H121.695V28.0227Z" fill="#1A237E"/>
<path d="M131.878 31.3697L124.146 45.9632C124.071 46.107 123.96 46.2283 123.823 46.315C123.686 46.4017 123.528 46.4506 123.367 46.4567C123.205 46.4628 123.044 46.426 122.901 46.3499C122.758 46.2738 122.638 46.1612 122.552 46.0235L121.401 44.2026C121.279 44.0058 121.086 43.863 120.862 43.8033C120.638 43.7436 120.4 43.7715 120.196 43.8813C109.151 49.7745 96.7363 52.6189 84.2277 52.122C72.1808 51.5979 60.4688 47.9981 50.2073 41.6655C50.0095 41.545 49.8641 41.3545 49.8001 41.1319C49.7361 40.9092 49.7581 40.6707 49.8617 40.4635C49.9653 40.2563 50.143 40.0955 50.3595 40.0132C50.576 39.9308 50.8156 39.9328 51.0307 40.0187C61.2395 44.0888 77.7342 48.2728 96.3979 43.5533C102.949 41.8812 109.221 39.2606 115.015 35.7745C115.119 35.7109 115.21 35.6271 115.281 35.5279C115.353 35.4288 115.404 35.3164 115.431 35.1972C115.459 35.0781 115.462 34.9547 115.441 34.8343C115.42 34.7138 115.375 34.5988 115.309 34.4959L113.749 32.0391C113.671 31.9042 113.628 31.7517 113.624 31.5956C113.621 31.4396 113.656 31.2852 113.729 31.1468C113.801 31.0084 113.907 30.8906 114.037 30.8043C114.167 30.718 114.317 30.6661 114.472 30.6534L130.96 29.984C131.132 29.9638 131.305 29.9914 131.461 30.0639C131.617 30.1364 131.751 30.2508 131.846 30.3945C131.941 30.5382 131.994 30.7054 132 30.8776C132.005 31.0497 131.963 31.2201 131.878 31.3697Z" fill="#00A651" stroke="white" stroke-width="0.669429" stroke-miterlimit="10"/>
</svg>
