<svg width="24" height="24" viewBox="0 0 24 24" fill="none" xmlns="http://www.w3.org/2000/svg">
<path fill-rule="evenodd" clip-rule="evenodd" d="M16.3311 16.6509L19.7529 12.6584C19.9163 12.472 19.9999 12.2366 20 12.0001C20.0001 11.8382 19.9611 11.6758 19.8818 11.528C19.8466 11.4622 19.8036 11.3996 19.7529 11.3418L16.3311 7.34927C15.9717 6.92992 15.3404 6.88133 14.921 7.24073C14.5017 7.60012 14.4531 8.23142 14.8125 8.65077L16.8259 11L9.08128 11C8.52899 11 8.08128 11.4477 8.08128 12C8.08128 12.5523 8.52899 13 9.08128 13L16.826 13L14.8125 15.3494C14.4531 15.7687 14.5017 16.4 14.921 16.7594C15.3404 17.1188 15.9717 17.0702 16.3311 16.6509ZM10 6C10.5523 6 11 6.44771 11 7L11 8.5C11 9.05228 11.4477 9.5 12 9.5C12.5523 9.5 13 9.05228 13 8.5L13 7C13 5.34315 11.6569 4 10 4L7 4C5.34315 4 4 5.34315 4 7L4 17C4 18.6569 5.34314 20 7 20L10 20C11.6569 20 13 18.6569 13 17L13 15.5C13 14.9477 12.5523 14.5 12 14.5C11.4477 14.5 11 14.9477 11 15.5L11 17C11 17.5523 10.5523 18 10 18L7 18C6.44772 18 6 17.5523 6 17L6 7C6 6.44771 6.44772 6 7 6L10 6Z" fill="#737791"/>
</svg>
