<svg width="19" height="19" viewBox="0 0 19 19" fill="none" xmlns="http://www.w3.org/2000/svg">
<path d="M16.7549 14.6652C16.2727 14.2354 15.8506 13.7426 15.4999 13.2002C15.117 12.4515 14.8875 11.6338 14.8249 10.7952V8.3252C14.8282 7.008 14.3504 5.73493 13.4813 4.74518C12.6121 3.75543 11.4115 3.11713 10.1049 2.9502V2.3052C10.1049 2.12816 10.0346 1.95838 9.9094 1.8332C9.78421 1.70802 9.61443 1.6377 9.4374 1.6377C9.26037 1.6377 9.09059 1.70802 8.96541 1.8332C8.84023 1.95838 8.7699 2.12816 8.7699 2.3052V2.9602C7.47503 3.13916 6.28889 3.78132 5.43117 4.76775C4.57345 5.75417 4.10227 7.01802 4.1049 8.3252V10.7952C4.04228 11.6338 3.81279 12.4515 3.4299 13.2002C3.08534 13.7414 2.67 14.2341 2.1949 14.6652C2.14157 14.7121 2.09882 14.7697 2.06951 14.8344C2.0402 14.899 2.02499 14.9692 2.0249 15.0402V15.7202C2.0249 15.8528 2.07758 15.98 2.17135 16.0737C2.26512 16.1675 2.39229 16.2202 2.5249 16.2202H16.4249C16.5575 16.2202 16.6847 16.1675 16.7785 16.0737C16.8722 15.98 16.9249 15.8528 16.9249 15.7202V15.0402C16.9248 14.9692 16.9096 14.899 16.8803 14.8344C16.851 14.7697 16.8082 14.7121 16.7549 14.6652ZM3.0649 15.2202C3.53011 14.7708 3.9397 14.2672 4.2849 13.7202C4.76721 12.8159 5.04862 11.8182 5.1099 10.7952V8.3252C5.09007 7.73921 5.18836 7.15523 5.39892 6.60803C5.60949 6.06082 5.92801 5.56159 6.33553 5.14005C6.74304 4.7185 7.23122 4.38328 7.77099 4.15433C8.31076 3.92539 8.89108 3.8074 9.4774 3.8074C10.0637 3.8074 10.644 3.92539 11.1838 4.15433C11.7236 4.38328 12.2118 4.7185 12.6193 5.14005C13.0268 5.56159 13.3453 6.06082 13.5559 6.60803C13.7664 7.15523 13.8647 7.73921 13.8449 8.3252V10.7952C13.9062 11.8182 14.1876 12.8159 14.6699 13.7202C15.0151 14.2672 15.4247 14.7708 15.8899 15.2202H3.0649Z" fill="#FFA412"/>
<path d="M9.49967 17.8895C9.81464 17.8823 10.1169 17.7638 10.353 17.5552C10.589 17.3466 10.7437 17.0612 10.7897 16.7495H8.15967C8.2069 17.0697 8.36883 17.3618 8.61532 17.5715C8.86181 17.7812 9.17608 17.8942 9.49967 17.8895Z" fill="#FFA412"/>
</svg>
