<svg width="30" height="30" viewBox="0 0 30 30" fill="none" xmlns="http://www.w3.org/2000/svg">
<circle cx="15" cy="15" r="15" fill="#FF947A"/>
<path fill-rule="evenodd" clip-rule="evenodd" d="M9.00012 10.4996C9.00012 8.84278 10.3433 7.49963 12.0001 7.49963H16.5001V10.4996C16.5001 12.1565 17.8433 13.4996 19.5001 13.4996H21.0001V19.4996C21.0001 21.1565 19.657 22.4996 18.0001 22.4996H12.0001C10.3433 22.4996 9.00012 21.1565 9.00012 19.4996V10.4996ZM12.0001 14.2496C11.5859 14.2496 11.2501 14.5854 11.2501 14.9996C11.2501 15.4138 11.5859 15.7496 12.0001 15.7496H13.5001C13.9143 15.7496 14.2501 15.4138 14.2501 14.9996C14.2501 14.5854 13.9143 14.2496 13.5001 14.2496H12.0001ZM12.0001 17.2496C11.5859 17.2496 11.2501 17.5854 11.2501 17.9996C11.2501 18.4138 11.5859 18.7496 12.0001 18.7496H15.0001C15.4143 18.7496 15.7501 18.4138 15.7501 17.9996C15.7501 17.5854 15.4143 17.2496 15.0001 17.2496H12.0001ZM18.5115 9.14873L18.4133 10.6218C18.3831 11.0746 18.7587 11.4502 19.2115 11.42L20.6846 11.3218C21.3275 11.279 21.6206 10.4988 21.165 10.0431L19.7901 8.66828C19.3345 8.21265 18.5543 8.50578 18.5115 9.14873Z" fill="white"/>
</svg>
