<svg width="31" height="30" viewBox="0 0 31 30" fill="none" xmlns="http://www.w3.org/2000/svg">
<circle cx="15.7502" cy="15" r="15" fill="#FA5A7D"/>
<path fill-rule="evenodd" clip-rule="evenodd" d="M10.4999 8.24963C9.67145 8.24963 8.99988 8.92122 8.99988 9.74963V20.2496C8.99988 21.078 9.67145 21.7496 10.4999 21.7496H20.9999C21.8283 21.7496 22.4999 21.078 22.4999 20.2496V9.74963C22.4999 8.92122 21.8283 8.24963 20.9999 8.24963H10.4999ZM12.7499 15.7496C12.7499 15.3354 12.4141 14.9996 11.9999 14.9996C11.5857 14.9996 11.2499 15.3354 11.2499 15.7496V18.7496C11.2499 19.1639 11.5857 19.4996 11.9999 19.4996C12.4141 19.4996 12.7499 19.1639 12.7499 18.7496V15.7496ZM15.7499 12.7496C16.1641 12.7496 16.4999 13.0854 16.4999 13.4996V18.7496C16.4999 19.1639 16.1641 19.4996 15.7499 19.4996C15.3357 19.4996 14.9999 19.1639 14.9999 18.7496V13.4996C14.9999 13.0854 15.3357 12.7496 15.7499 12.7496ZM20.2499 11.2496C20.2499 10.8354 19.9141 10.4996 19.4999 10.4996C19.0857 10.4996 18.7499 10.8354 18.7499 11.2496V18.7496C18.7499 19.1639 19.0857 19.4996 19.4999 19.4996C19.9141 19.4996 20.2499 19.1639 20.2499 18.7496V11.2496Z" fill="white"/>
</svg>
