<svg width="25" height="25" viewBox="0 0 25 25" fill="none" xmlns="http://www.w3.org/2000/svg">
<path d="M3.49988 3.25024H5.49988L5.89988 5.25024M7.49988 13.2502H17.4999L21.4999 5.25024H5.89988M7.49988 13.2502L5.89988 5.25024M7.49988 13.2502L5.20699 15.5431C4.57702 16.1731 5.02319 17.2502 5.91409 17.2502H17.4999M17.4999 17.2502C16.3953 17.2502 15.4999 18.1457 15.4999 19.2502C15.4999 20.3548 16.3953 21.2502 17.4999 21.2502C18.6044 21.2502 19.4999 20.3548 19.4999 19.2502C19.4999 18.1457 18.6044 17.2502 17.4999 17.2502ZM9.49988 19.2502C9.49988 20.3548 8.60445 21.2502 7.49988 21.2502C6.39531 21.2502 5.49988 20.3548 5.49988 19.2502C5.49988 18.1457 6.39531 17.2502 7.49988 17.2502C8.60445 17.2502 9.49988 18.1457 9.49988 19.2502Z" stroke="#737791" stroke-width="1.5" stroke-linecap="round" stroke-linejoin="round"/>
</svg>
