<svg width="24" height="24" viewBox="0 0 24 24" fill="none" xmlns="http://www.w3.org/2000/svg">
<path d="M19.0001 6.00024H17.0001C17.0001 3.20024 14.8001 1.00024 12.0001 1.00024C9.20007 1.00024 7.00007 3.20024 7.00007 6.00024H5.00007C3.90007 6.00024 3.00007 6.90024 3.00007 8.00024V20.0002C3.00007 21.1002 3.90007 22.0002 5.00007 22.0002H19.0001C20.1001 22.0002 21.0001 21.1002 21.0001 20.0002V8.00024C21.0001 6.90024 20.1001 6.00024 19.0001 6.00024ZM12.0001 3.00024C13.7001 3.00024 15.0001 4.30024 15.0001 6.00024H9.00007C9.00007 4.30024 10.3001 3.00024 12.0001 3.00024ZM19.0001 20.0002H5.00007V8.00024H19.0001V20.0002ZM12.0001 12.0002C10.3001 12.0002 9.00007 10.7002 9.00007 9.00024H7.00007C7.00007 11.8002 9.20007 14.0002 12.0001 14.0002C14.8001 14.0002 17.0001 11.8002 17.0001 9.00024H15.0001C15.0001 10.7002 13.7001 12.0002 12.0001 12.0002Z" fill="#737791"/>
</svg>
