<svg width="25" height="25" viewBox="0 0 25 25" fill="none" xmlns="http://www.w3.org/2000/svg">
<path d="M19.5002 6.25024H17.5002C17.5002 3.45024 15.3002 1.25024 12.5002 1.25024C9.70024 1.25024 7.50024 3.45024 7.50024 6.25024H5.50024C4.40024 6.25024 3.50024 7.15024 3.50024 8.25024V20.2502C3.50024 21.3502 4.40024 22.2502 5.50024 22.2502H19.5002C20.6002 22.2502 21.5002 21.3502 21.5002 20.2502V8.25024C21.5002 7.15024 20.6002 6.25024 19.5002 6.25024ZM12.5002 3.25024C14.2002 3.25024 15.5002 4.55024 15.5002 6.25024H9.50024C9.50024 4.55024 10.8002 3.25024 12.5002 3.25024ZM19.5002 20.2502H5.50024V8.25024H19.5002V20.2502ZM12.5002 12.2502C10.8002 12.2502 9.50024 10.9502 9.50024 9.25024H7.50024C7.50024 12.0502 9.70024 14.2502 12.5002 14.2502C15.3002 14.2502 17.5002 12.0502 17.5002 9.25024H15.5002C15.5002 10.9502 14.2002 12.2502 12.5002 12.2502Z" fill="white"/>
</svg>
