<svg width="30" height="30" viewBox="0 0 30 30" fill="none" xmlns="http://www.w3.org/2000/svg">
<circle cx="15" cy="15" r="15" fill="#BF83FF"/>
<path d="M13.5 15.7499C16.3995 15.7499 18.75 17.4288 18.75 19.4999C18.75 20.3283 18.0784 20.9999 17.25 20.9999H9.75C8.92157 20.9999 8.25 20.3283 8.25 19.4999C8.25 17.4288 10.6005 15.7499 13.5 15.7499ZM13.5 8.99988C15.1569 8.99988 16.5 10.343 16.5 11.9999C16.5 13.6567 15.1569 14.9999 13.5 14.9999C11.8431 14.9999 10.5 13.6567 10.5 11.9999C10.5 10.343 11.8431 8.99988 13.5 8.99988ZM19.5 10.4999C19.9142 10.4999 20.2499 10.8357 20.25 11.2499V11.9999H21C21.4142 11.9999 21.7499 12.3357 21.75 12.7499C21.75 13.1641 21.4142 13.4999 21 13.4999H20.25V14.2499C20.25 14.6641 19.9142 14.9999 19.5 14.9999C19.0858 14.9999 18.75 14.6641 18.75 14.2499V13.4999H18C17.5858 13.4999 17.25 13.1641 17.25 12.7499C17.2501 12.3357 17.5858 11.9999 18 11.9999H18.75V11.2499C18.7501 10.8357 19.0858 10.4999 19.5 10.4999Z" fill="white"/>
</svg>
