<svg width="28" height="28" viewBox="0 0 28 28" fill="none" xmlns="http://www.w3.org/2000/svg">
<circle opacity="0.05" cx="13.694" cy="14.0651" r="13.6745" fill="#FF0000"/>
<path d="M13.6927 16.5964C14.4291 16.5964 15.0261 15.9995 15.0261 15.2631C15.0261 14.5267 14.4291 13.9297 13.6927 13.9297C12.9563 13.9297 12.3594 14.5267 12.3594 15.2631C12.3594 15.9995 12.9563 16.5964 13.6927 16.5964Z" fill="black"/>
<path d="M18.6735 15.1501C18.2814 14.136 17.6008 13.2589 16.7157 12.6274C15.8306 11.9959 14.7799 11.6375 13.6934 11.5967C12.6068 11.6375 11.5561 11.9959 10.671 12.6274C9.78592 13.2589 9.10528 14.136 8.71322 15.1501C8.68674 15.2234 8.68674 15.3035 8.71322 15.3768C9.10528 16.3909 9.78592 17.268 10.671 17.8995C11.5561 18.531 12.6068 18.8894 13.6934 18.9302C14.7799 18.8894 15.8306 18.531 16.7157 17.8995C17.6008 17.268 18.2814 16.3909 18.6735 15.3768C18.7 15.3035 18.7 15.2234 18.6735 15.1501ZM13.6934 17.4302C13.2648 17.4302 12.8459 17.3031 12.4896 17.065C12.1333 16.8269 11.8556 16.4885 11.6916 16.0926C11.5276 15.6967 11.4847 15.261 11.5683 14.8407C11.6519 14.4204 11.8582 14.0344 12.1613 13.7313C12.4643 13.4283 12.8503 13.222 13.2707 13.1384C13.691 13.0548 14.1266 13.0977 14.5225 13.2617C14.9184 13.4256 15.2568 13.7034 15.4949 14.0597C15.733 14.416 15.8601 14.8349 15.8601 15.2635C15.8592 15.8378 15.6306 16.3884 15.2245 16.7946C14.8183 17.2007 14.2677 17.4293 13.6934 17.4302Z" fill="black"/>
</svg>
